# xmcd CD database file
#
# Track frame offsets:
#	150
#	11773
#	26729
#	40577
#	54136
#	68295
#	79407
#	91085
#	104805
#	118946
#	129903
#	141057
#	155101
#	165653
#	178583
#	191628
#	205678
#	217994
#	230482
#	244912
#
# Disc length: 3421 seconds
#
# Revision: 0
# Processed by: cddbd v1.5.2PL0 Copyright (c) Steve Scherf et al.
# Submitted via: CDex 1.51
#
DISCID=0e0d5b14
DTITLE=Fitzgerald, Ella - Legendary Vol 1, The
DYEAR=1999
DGENRE=Jazz
TTITLE0=I'll Chase The Blues Away
TTITLE1=Love And Kisses
TTITLE2=Rhythm And Romance
TTITLE3=My Melancholy Baby
TTITLE4=Crying My Heart Out For You
TTITLE5=When I Get Low I Get High
TTITLE6=Sing Me A Swing Song (And Let Me Dance)
TTITLE7=A Little Bit Later On
TTITLE8=Love, You're Just A Laugh
TTITLE9=Devoting My Time To You
TTITLE10=Vote For Mr Rhythm
TTITLE11=Goodnight, My Love
TTITLE12=Didja Mean It?
TTITLE13=Organ Grinder's Swing
TTITLE14=Shine
TTITLE15=Darktown Strutters' Ball
TTITLE16=Take Another Guess
TTITLE17=Big Boy Blue
TTITLE18=Dedicated To You
TTITLE19=Cryin' Mood
EXTD=YEAR: 1999
EXTT0=
EXTT1=
EXTT2=
EXTT3=
EXTT4=
EXTT5=
EXTT6=
EXTT7=
EXTT8=
EXTT9=
EXTT10=
EXTT11=
EXTT12=
EXTT13=
EXTT14=
EXTT15=
EXTT16=
EXTT17=
EXTT18=
EXTT19=
PLAYORDER=
